<svg version="1.1" xmlns="http://www.w3.org/2000/svg" width="1004" height="591">
<path d="M0 0 C331.32 0 662.64 0 1004 0 C1004 195.03 1004 390.06 1004 591 C672.68 591 341.36 591 0 591 C0 395.97 0 200.94 0 0 Z " fill="transparent" transform="translate(0,0)"/>
<path d="M0 0 C1.33875687 -0.00856522 1.33875687 -0.00856522 2.70455933 -0.01730347 C3.69191574 -0.01842133 4.67927216 -0.01953918 5.69654846 -0.02069092 C6.73092041 -0.02565582 7.76529236 -0.03062073 8.83100891 -0.03573608 C12.27781327 -0.05042089 15.72457138 -0.05717546 19.17140198 -0.06268311 C21.57065838 -0.06843599 23.96991477 -0.07419371 26.36917114 -0.07995605 C31.41921707 -0.09048844 36.469247 -0.09631426 41.51930237 -0.09979248 C47.946546 -0.10523639 54.37357337 -0.129166 60.80074978 -0.15776443 C65.76921162 -0.17653843 70.73762334 -0.18160453 75.70611763 -0.18312836 C78.07204921 -0.18612985 80.43798045 -0.19407223 82.80387688 -0.20731354 C99.50373664 -0.29398942 116.59990753 -0.2804577 132.23780823 6.39044189 C133.34865784 6.84604492 133.34865784 6.84604492 134.48194885 7.31085205 C153.37003948 15.26567562 167.93996565 27.98877114 175.80030823 47.20294189 C176.15093323 48.17231689 176.50155823 49.14169189 176.86280823 50.14044189 C177.25468323 51.19231689 177.64655823 52.24419189 178.05030823 53.32794189 C180.92365298 62.58649721 181.24987617 71.59850679 181.30030823 81.26544189 C181.31037903 82.51559082 181.32044983 83.76573975 181.33082581 85.05377197 C181.13250257 106.4825277 174.11642197 125.55606621 158.84474182 140.77862549 C151.99239574 147.22851539 140.5531533 156.14044189 130.86280823 156.14044189 C138.17997644 172.64363075 145.64177103 189.07622743 153.23780823 205.45294189 C153.64072083 206.32164917 154.04363342 207.19035645 154.45875549 208.08538818 C158.68585092 217.19428495 162.92913662 226.2954141 167.20265198 235.38262939 C167.54306519 236.10687607 167.88347839 236.83112274 168.23420715 237.57731628 C169.80834973 240.92540746 171.38514825 244.2721892 172.9677887 247.61627197 C174.61728278 251.11640058 176.24531593 254.62542123 177.86280823 258.14044189 C178.15492188 258.76533508 178.44703552 259.39022827 178.7480011 260.03405762 C179.62731383 261.92405678 180.48736867 263.82177928 181.34327698 265.72247314 C181.8514093 266.83469238 182.35954163 267.94691162 182.8830719 269.09283447 C183.86280823 272.14044189 183.86280823 272.14044189 182.86280823 277.14044189 C165.04280823 277.14044189 147.22280823 277.14044189 128.86280823 277.14044189 C119.63572547 258.68627638 119.63572547 258.68627638 116.89015198 252.86309814 C116.56492554 252.17645584 116.2396991 251.48981354 115.90461731 250.78236389 C114.86757611 248.59028749 113.83363538 246.39677124 112.80030823 244.20294189 C112.43797089 243.43508362 112.07563354 242.66722534 111.70231628 241.87609863 C104.83131571 227.30843316 98.14812637 212.65925989 91.51304626 197.98303223 C86.69558969 187.33854122 81.77052674 176.74353744 76.86280823 166.14044189 C66.96280823 165.81044189 57.06280823 165.48044189 46.86280823 165.14044189 C46.86804504 168.49772461 46.87328186 171.85500732 46.87867737 175.31402588 C46.89521065 186.37816014 46.9062784 197.44229493 46.9146204 208.50643826 C46.91978312 215.21786057 46.92682535 221.92927121 46.93824768 228.64068604 C46.94907387 235.11157926 46.95508449 241.58246032 46.95768547 248.05336189 C46.95954021 250.52823134 46.96316173 253.00310009 46.96853828 255.4779644 C46.97574516 258.93114562 46.97679932 262.38427591 46.97633362 265.83746338 C46.97992889 266.87180008 46.98352417 267.90613678 46.98722839 268.97181702 C46.98585373 269.90716278 46.98447906 270.84250854 46.98306274 271.80619812 C46.98398454 272.6238285 46.98490633 273.44145887 46.98585606 274.28386593 C46.86280823 276.14044189 46.86280823 276.14044189 45.86280823 277.14044189 C44.30281775 277.23891156 42.73840278 277.26842807 41.17530823 277.26983643 C40.17757385 277.27298859 39.17983948 277.27614075 38.15187073 277.27938843 C37.0664801 277.2773642 35.98108948 277.27533997 34.86280823 277.27325439 C33.7567926 277.27421112 32.65077698 277.27516785 31.51124573 277.27615356 C29.16749515 277.27683556 26.8237427 277.27497993 24.47999573 277.27081299 C20.87839035 277.26546503 17.27690969 277.27075736 13.67530823 277.27716064 C11.40447462 277.27649987 9.13364108 277.27521871 6.86280823 277.27325439 C5.7774176 277.27527863 4.69202698 277.27730286 3.57374573 277.27938843 C2.57601135 277.27623627 1.57827698 277.27308411 0.55030823 277.26983643 C-0.33269958 277.26904083 -1.2157074 277.26824524 -2.12547302 277.26742554 C-4.13719177 277.14044189 -4.13719177 277.14044189 -5.13719177 276.14044189 C-5.23404495 274.05216868 -5.25906059 271.96055828 -5.25744629 269.87004089 C-5.25830071 269.20765099 -5.25915514 268.54526108 -5.26003546 267.86279875 C-5.2616921 265.6271132 -5.25616591 263.39150148 -5.25071716 261.15582275 C-5.2504353 259.55963645 -5.250593 257.96345002 -5.25115967 256.36726379 C-5.2514477 252.02034295 -5.24555012 247.67344945 -5.23858571 243.32653499 C-5.23235305 238.78880243 -5.23174844 234.25106931 -5.2305603 229.71333313 C-5.22744673 221.1143635 -5.21923299 212.51540651 -5.20921081 203.91644245 C-5.19805049 194.12942461 -5.19253943 184.34240618 -5.18751538 174.55538356 C-5.17705039 154.4170626 -5.15945045 134.27875304 -5.13719177 114.14044189 C-3.85061172 114.13679626 -2.56403168 114.13315063 -1.23846436 114.12939453 C10.92788768 114.09234087 23.09398904 114.03445509 35.26014996 113.95653915 C41.51386197 113.91714802 47.76743493 113.88491845 54.02125549 113.8694458 C60.0644526 113.85422427 66.1072672 113.81968099 72.15029335 113.77213287 C74.44774348 113.75737571 76.74524823 113.74940416 79.04274559 113.74855804 C100.43495216 114.08143616 100.43495216 114.08143616 119.21437073 104.84356689 C125.09136652 98.77159968 128.12034712 91.4630282 128.30030823 83.01544189 C128.14656464 75.09312522 126.15797022 68.18815751 121.10108948 61.97637939 C111.30980786 52.64189184 97.52567688 50.85277412 84.54786682 50.82159424 C83.5710495 50.81154861 82.59423218 50.80150299 81.58781433 50.79115295 C78.39563017 50.76054275 75.20352899 50.74334793 72.01124573 50.72637939 C69.78350623 50.70764989 67.5557737 50.68807517 65.32804871 50.66769409 C59.49206156 50.61655523 53.65605147 50.57683219 47.81996155 50.53955078 C41.85371813 50.49939631 35.88756869 50.44835636 29.92140198 50.39825439 C18.23527026 50.30171132 6.54908524 50.21723784 -5.13719177 50.14044189 C-5.16246015 43.18040742 -5.18002399 36.2203847 -5.19212341 29.26031494 C-5.19716519 26.89051878 -5.20399842 24.52072574 -5.21263123 22.15093994 C-5.22470367 18.75290151 -5.23042148 15.35490404 -5.23484802 11.95684814 C-5.24000931 10.89019424 -5.24517059 9.82354034 -5.25048828 8.7245636 C-5.25056381 7.74362228 -5.25063934 6.76268097 -5.25071716 5.75201416 C-5.25293777 4.88375504 -5.25515839 4.01549591 -5.25744629 3.1209259 C-5.03522056 -0.53893242 -3.20423805 0.0122277 0 0 Z " fill="#000000" transform="translate(41.13719177246094,157.85955810546875)"/>
<path d="M0 0 C1.4616156 -0.00945648 1.4616156 -0.00945648 2.95275879 -0.019104 C4.53558655 -0.01303131 4.53558655 -0.01303131 6.15039062 -0.00683594 C7.23042358 -0.00874939 8.31045654 -0.01066284 9.42321777 -0.01263428 C11.70971916 -0.01399701 13.99622826 -0.01029445 16.28271484 -0.00195312 C19.79216817 0.00874495 23.30110956 -0.00184566 26.81054688 -0.01464844 C29.02799593 -0.01332686 31.24544466 -0.0107645 33.46289062 -0.00683594 C34.51810913 -0.0108844 35.57332764 -0.01493286 36.66052246 -0.019104 C37.63493286 -0.01279968 38.60934326 -0.00649536 39.61328125 0 C40.47328735 0.00159119 41.33329346 0.00318237 42.21936035 0.00482178 C44.30664062 0.25878906 44.30664062 0.25878906 46.30664062 2.25878906 C46.56835365 4.47267342 46.56835365 4.47267342 46.58511353 7.28274536 C46.59627701 8.3456781 46.60744049 9.40861084 46.61894226 10.50375366 C46.62110245 11.67475616 46.62326263 12.84575867 46.62548828 14.05224609 C46.63553391 15.28148804 46.64557953 16.51072998 46.65592957 17.77722168 C46.68157444 21.15306557 46.69839725 24.52874037 46.71135759 27.90464258 C46.7269609 31.43077061 46.75375997 34.95681279 46.77938843 38.48287964 C46.82622599 45.16223225 46.86294592 51.84160092 46.8960613 58.52103412 C46.93424762 66.1243745 46.98366685 73.72762876 47.03404546 81.33089662 C47.13743929 96.97346523 47.22667535 112.61608208 47.30664062 128.25878906 C49.22548572 126.02776661 51.14330295 123.79587433 53.06054688 121.56347656 C53.59989868 120.93658936 54.13925049 120.30970215 54.69494629 119.66381836 C58.26309016 115.50710066 61.73639353 111.29027919 65.13476562 106.99316406 C67.89477058 103.51833768 70.69348217 100.07587936 73.49414062 96.63378906 C74.049646 95.95074707 74.60515137 95.26770508 75.17749023 94.56396484 C76.31857203 93.161041 77.45976778 91.75820984 78.60107422 90.35546875 C81.33780541 86.99116192 84.07213613 83.62490578 86.80664062 80.25878906 C87.88996169 78.92544576 88.97329505 77.59211245 90.05664062 76.25878906 C90.59289062 75.59878906 91.12914062 74.93878906 91.68164062 74.25878906 C101.97330729 61.5921224 112.26497396 48.92545573 122.55664062 36.25878906 C123.09345459 35.59806396 123.63026855 34.93733887 124.18334961 34.2565918 C125.26086365 32.930483 126.33849931 31.604473 127.41625977 30.27856445 C130.21466118 26.83551843 133.01058672 23.39050295 135.80273438 19.94238281 C136.37894531 19.23146484 136.95515625 18.52054688 137.54882812 17.78808594 C138.63946822 16.44237679 139.72937235 15.09607066 140.81835938 13.74902344 C141.56859375 12.82379883 141.56859375 12.82379883 142.33398438 11.87988281 C142.76445068 11.34806396 143.19491699 10.81624512 143.63842773 10.26831055 C144.46419312 9.27359741 144.46419312 9.27359741 145.30664062 8.25878906 C145.64451599 7.67795059 145.98239136 7.09711212 146.33050537 6.49867249 C148.57227777 3.12372499 150.19139284 1.49145187 154.23808289 0.64723206 C157.98921419 0.44761373 161.70348821 0.47084655 165.45507812 0.57519531 C166.83653242 0.58826538 168.21801936 0.59822291 169.59951782 0.60520935 C173.22042806 0.63182658 176.83934528 0.70048595 180.45947266 0.77813721 C184.15955648 0.84998843 187.8599652 0.88176698 191.56054688 0.91699219 C198.81014948 0.99187018 206.0581149 1.11119854 213.30664062 1.25878906 C213.88574219 3.63598633 213.88574219 3.63598633 214.30664062 6.25878906 C213.04101562 8.22363281 213.04101562 8.22363281 211.05664062 10.19628906 C207.53471685 13.89491836 204.29805473 17.71678063 201.18164062 21.75878906 C197.01595564 27.12230995 192.7596824 32.400419 188.43164062 37.63378906 C183.84670074 43.17838208 179.27722757 48.73418735 174.74414062 54.32128906 C173.94580811 55.30524658 173.94580811 55.30524658 173.13134766 56.30908203 C172.05925916 57.63090179 170.98731872 58.95284165 169.91552734 60.27490234 C167.75657195 62.93706798 165.59507748 65.59716556 163.43334961 68.25708008 C162.3506097 69.58942055 161.26808943 70.92193954 160.18579102 72.25463867 C157.45612404 75.6156516 154.72376611 78.9744139 151.98632812 82.32910156 C146.82646427 88.65765253 141.70013209 95.00485796 136.68164062 101.44628906 C132.65035067 106.61798566 128.48416544 111.65294727 124.22680664 116.63964844 C120.14287303 121.42786047 116.21140001 126.32437711 112.30664062 131.25878906 C110.80758477 133.13454399 109.30760213 135.00955867 107.80664062 136.88378906 C107.13632812 137.72167969 106.46601562 138.55957031 105.77539062 139.42285156 C105.29070312 140.02871094 104.80601562 140.63457031 104.30664062 141.25878906 C106.34710789 144.89056413 108.59282447 147.84147354 111.43164062 150.88378906 C114.60438461 154.34775109 117.66307276 157.85812601 120.61914062 161.50878906 C124.05709867 165.75251852 127.55950575 169.92984591 131.11914062 174.07128906 C131.6233252 174.65789307 132.12750977 175.24449707 132.64697266 175.84887695 C134.19925484 177.65299346 135.75271901 179.4560845 137.30664062 181.25878906 C148.73090752 194.51208181 148.73090752 194.51208181 153.74414062 200.69628906 C157.84579333 205.74732974 162.09255073 210.66007302 166.36450195 215.56665039 C171.28664579 221.22277927 176.13728818 226.93638497 180.96826172 232.67041016 C183.22431489 235.34787859 185.48370668 238.02251863 187.74414062 240.69628906 C188.41896484 241.49486328 188.41896484 241.49486328 189.10742188 242.30957031 C192.02021095 245.7519574 194.95155465 249.17776824 197.89355469 252.59521484 C199.89603048 254.92380812 201.89113302 257.25863231 203.88427734 259.59521484 C204.81792681 260.6871969 205.75436581 261.77680128 206.69384766 262.86376953 C207.96956852 264.34192654 209.23219559 265.83135396 210.49414062 267.32128906 C211.20957031 268.15789062 211.925 268.99449219 212.66210938 269.85644531 C214.40976515 272.40943415 215.03563348 274.19268858 215.30664062 277.25878906 C213.50762278 279.05780691 210.78428447 278.46143653 208.35327148 278.51513672 C207.07781967 278.54411041 205.80236786 278.57308411 204.48826599 278.60293579 C199.39719204 278.6926676 194.30581081 278.76031668 189.21416378 278.80723 C185.35048412 278.84292581 181.48889829 278.89603718 177.6262207 278.99267578 C173.89007982 279.08586792 170.15578784 279.13420864 166.41855049 279.15162277 C164.99867461 279.16566158 163.57885897 279.19517779 162.1596508 279.24092484 C151.07738405 279.58050081 151.07738405 279.58050081 146.69659424 276.31060791 C144.66823924 274.05357005 142.97096848 271.79164677 141.30664062 269.25878906 C140.41792192 268.13644107 139.52039795 267.02096763 138.61132812 265.91503906 C137.80953125 264.87347656 137.00773438 263.83191406 136.18164062 262.75878906 C131.91901717 257.26443598 127.55153263 251.86703486 123.11914062 246.50878906 C118.84603737 241.34215133 114.59986687 236.15994467 110.42773438 230.91113281 C107.57468096 227.34350248 104.69013388 223.80183294 101.80664062 220.25878906 C98.29083098 215.93788541 94.77939613 211.61444851 91.30664062 207.25878906 C87.76818086 202.82251115 84.1965826 198.4136394 80.61914062 194.00878906 C80.07193359 193.33460938 79.52472656 192.66042969 78.9609375 191.96582031 C78.16719727 190.98935547 78.16719727 190.98935547 77.35742188 189.99316406 C76.59099365 189.04860352 76.59099365 189.04860352 75.80908203 188.08496094 C74.81964282 186.88232764 73.81691566 185.69048586 72.80029297 184.51074219 C69.30664062 180.45550028 69.30664062 180.45550028 69.30664062 178.25878906 C58.18440732 187.25471306 48.89378455 198.48418943 39.67382812 209.36425781 C33.9201696 216.13868035 28.04192936 222.74359339 21.95263672 229.21826172 C17.99574777 233.45074306 14.3298134 237.85553221 10.70898438 242.37988281 C5.23811872 248.93602588 -0.6560854 255.22151509 -6.69335938 261.25878906 C-6.73909847 228.2977687 -6.77435906 195.33675655 -6.79549003 162.37571172 C-6.79799156 158.48777911 -6.8005802 154.59984657 -6.80322266 150.71191406 C-6.80374728 149.93786946 -6.8042719 149.16382485 -6.80481242 148.36632435 C-6.81352422 135.81937119 -6.82929844 123.27243629 -6.84766497 110.72549398 C-6.86634248 97.85916427 -6.87747154 84.99284415 -6.88153636 72.12650144 C-6.8842859 64.18194608 -6.89298205 56.2374423 -6.90919231 48.29290281 C-6.9209755 42.20958397 -6.92227617 36.12630987 -6.91957474 30.04297829 C-6.92012742 27.54112619 -6.92413798 25.03927223 -6.93177032 22.53743172 C-6.94164412 19.13552754 -6.93935607 15.73384851 -6.93386841 12.3319397 C-6.93969409 11.33000977 -6.94551977 10.32807985 -6.95152199 9.29578841 C-6.9475399 8.38960686 -6.9435578 7.4834253 -6.93945503 6.54978371 C-6.94059419 5.37075208 -6.94059419 5.37075208 -6.94175637 4.16790164 C-6.38612646 -0.10252064 -3.61582295 0.00669001 0 0 Z " fill="#000000" transform="translate(539.693359375,156.7412109375)"/>
<path d="M0 0 C1.2065625 0.0309375 1.2065625 0.0309375 2.4375 0.0625 C5.45081221 5.8727218 7.97948398 11.72955692 10.31640625 17.83984375 C10.68065704 18.78251602 11.04490784 19.72518829 11.42019653 20.69642639 C12.61707242 23.79623943 13.8084814 26.89812423 15 30 C15.84503725 32.19091792 16.69050372 34.38167033 17.53637695 36.57226562 C19.29514848 41.12809342 21.05206861 45.68462855 22.80761719 50.24169922 C26.50369994 59.83248765 30.21944409 69.41564349 33.93649292 78.99832153 C35.13129603 82.07873226 36.3255667 85.15934902 37.51977539 88.23999023 C42.4753285 101.02083101 47.44921825 113.79440104 52.4375 126.5625 C58.22944643 141.38767404 63.9976834 156.22190354 69.75 171.0625 C70.14453369 172.08032562 70.53906738 173.09815125 70.94555664 174.14682007 C75.03809368 184.70546964 79.12867096 195.26487816 83.21859741 205.82453918 C84.47218929 209.06065801 85.72630959 212.2965717 86.98046875 215.5324707 C88.59883407 219.70843692 90.21448738 223.88543727 91.828125 228.06323242 C95.20845226 236.806241 98.6058823 245.53844202 102.14453125 254.21875 C102.68440098 255.55226425 103.22412165 256.88583886 103.76367188 258.21948242 C104.71894909 260.56891832 105.68669207 262.91334501 106.66992188 265.2512207 C107.07404297 266.24726318 107.47816406 267.24330566 107.89453125 268.26953125 C108.24491455 269.1097583 108.59529785 269.94998535 108.95629883 270.81567383 C109.4375 273.0625 109.4375 273.0625 107.4375 277.0625 C90.2775 277.0625 73.1175 277.0625 55.4375 277.0625 C50.93820417 265.81426043 50.93820417 265.81426043 49.47729492 261.63671875 C49.14502396 260.69025482 48.81275299 259.74379089 48.47041321 258.76864624 C48.12310654 257.77249298 47.77579987 256.77633972 47.41796875 255.75 C47.04282639 254.68012848 46.66768402 253.61025696 46.28117371 252.50796509 C45.47804018 250.21715028 44.67582359 247.92601382 43.87445068 245.63458252 C41.74032246 239.53327559 39.59864206 233.43462124 37.45703125 227.3359375 C37.02741089 226.112164 36.59779053 224.8883905 36.15515137 223.62753296 C32.4102506 212.96790601 28.6223502 202.32405953 24.8125 191.6875 C19.17658339 175.94868675 13.57795028 160.19695475 8 144.4375 C7.61825623 143.35897766 7.23651245 142.28045532 6.84320068 141.16925049 C4.70719431 135.13394021 2.57199371 129.09834542 0.4375 123.0625 C-1.19692381 125.51413571 -2.09304402 127.23137983 -3.04858398 129.93652344 C-3.32821991 130.72197037 -3.60785583 131.5074173 -3.89596558 132.31666565 C-4.19713287 133.17638474 -4.49830017 134.03610382 -4.80859375 134.921875 C-5.13119171 135.83279404 -5.45378967 136.74371307 -5.78616333 137.68223572 C-6.86180635 140.72413582 -7.93102698 143.76825011 -9 146.8125 C-9.75952317 148.96595851 -10.5192106 151.11935909 -11.27905273 153.27270508 C-16.96373925 169.40787069 -22.55271915 185.57574342 -28.125 201.75 C-33.88272896 218.46231356 -39.66616134 235.16468753 -45.56784058 251.82681274 C-46.26710622 253.80171689 -46.9649846 255.77711284 -47.66140747 257.75302124 C-48.61501701 260.45668986 -49.57414067 263.15833146 -50.53515625 265.859375 C-50.8144397 266.65344254 -51.09372314 267.44751007 -51.38146973 268.26564026 C-52.5357508 271.49079918 -53.65257847 274.1976177 -55.5625 277.0625 C-57.770401 277.42999268 -57.770401 277.42999268 -60.54711914 277.41894531 C-61.58481949 277.42194641 -62.62251984 277.42494751 -63.69166565 277.42803955 C-65.377631 277.40951935 -65.377631 277.40951935 -67.09765625 277.390625 C-68.8211454 277.38781525 -68.8211454 277.38781525 -70.57945251 277.38494873 C-73.01141251 277.3782174 -75.44336149 277.36428169 -77.87524414 277.34375 C-81.61289441 277.31260089 -85.35012346 277.30278179 -89.08789062 277.296875 C-91.44531768 277.28770537 -93.80274042 277.27732972 -96.16015625 277.265625 C-97.28615738 277.26137512 -98.41215851 277.25712524 -99.57228088 277.25274658 C-101.12410316 277.23833527 -101.12410316 277.23833527 -102.70727539 277.22363281 C-104.08055748 277.21339081 -104.08055748 277.21339081 -105.48158264 277.20294189 C-107.5625 277.0625 -107.5625 277.0625 -108.5625 276.0625 C-108.1571264 269.82715659 -106.53124703 264.70094336 -104.1953125 258.94140625 C-103.84919418 258.06582062 -103.50307587 257.19023499 -103.14646912 256.28811646 C-102.39585645 254.39238706 -101.64100049 252.49833342 -100.88235474 250.60580444 C-99.66190513 247.56114846 -98.45243389 244.51233365 -97.24584961 241.4621582 C-95.97501471 238.24983063 -94.70353467 235.03777626 -93.42875671 231.82701111 C-89.32992844 221.50141024 -85.30670413 211.14720448 -81.29925537 200.78585815 C-80.11473655 197.72346541 -78.92891098 194.66158178 -77.74267578 191.59985352 C-76.14596238 187.47865464 -74.54961374 183.35731487 -72.95361328 179.23583984 C-69.3886735 170.03079179 -65.81906741 160.82755322 -62.24981689 151.62417603 C-61.06012934 148.55638689 -59.87061134 145.48853206 -58.68115234 142.4206543 C-55.14760654 133.30694129 -51.61362537 124.19339847 -48.07717896 115.08081055 C-46.52392481 111.07837496 -44.97095788 107.07582798 -43.41809082 103.07324219 C-42.64187843 101.07256266 -41.8655931 99.07191143 -41.0892334 97.07128906 C-36.53592127 85.33645045 -31.99451612 73.59709509 -27.47139931 61.85058594 C-26.72413322 59.9100854 -25.97662981 57.96967645 -25.22904968 56.02929688 C-24.73318125 54.74218887 -24.23731637 53.4550795 -23.74145508 52.16796875 C-23.49698859 51.53341766 -23.25252211 50.89886658 -23.00064754 50.24508667 C-21.34294809 45.94155158 -19.68819749 41.63688915 -18.03393555 37.33203125 C-14.25634151 27.51497836 -10.47246894 17.70262519 -6.484375 7.96875 C-6.1981427 7.26770142 -5.9119104 6.56665283 -5.61700439 5.84436035 C-3.22835864 0.07874045 -3.22835864 0.07874045 0 0 Z " fill="#010101" transform="translate(875.5625,157.9375)"/>
<path d="M0 0 C17.49 0 34.98 0 53 0 C53 76.23 53 152.46 53 231 C63.23 231 73.46 231 84 231 C85.54258608 232.54258608 85.12718571 233.97363735 85.12939453 236.12084961 C85.13254669 236.99523178 85.13569885 237.86961395 85.13894653 238.77049255 C85.13591019 240.1970089 85.13591019 240.1970089 85.1328125 241.65234375 C85.13376923 242.62281143 85.13472595 243.59327911 85.13571167 244.59315491 C85.13639365 246.65023869 85.13453814 248.70732462 85.13037109 250.7644043 C85.12502884 253.92045922 85.13031253 257.07637145 85.13671875 260.23242188 C85.13605786 262.22656282 85.13477647 264.22070367 85.1328125 266.21484375 C85.13483673 267.16383041 85.13686096 268.11281708 85.13894653 269.09056091 C85.13421829 270.40686241 85.13421829 270.40686241 85.12939453 271.74975586 C85.12859894 272.5239537 85.12780334 273.29815155 85.12698364 274.09580994 C85 276 85 276 84 278 C69.17080344 278.04667875 54.34161657 278.08196856 39.51236153 278.10362434 C32.62719393 278.11394585 25.74207193 278.12802281 18.85693359 278.15087891 C12.21745783 278.17290903 5.57801712 278.18455546 -1.06149673 278.18975449 C-3.59974032 278.19346146 -6.1379812 278.20069979 -8.67620468 278.21146011 C-12.22022956 278.22589229 -15.76405613 278.22798142 -19.30810547 278.22705078 C-20.36689911 278.23424133 -21.42569275 278.24143188 -22.51657104 278.24884033 C-23.47853394 278.246091 -24.44049683 278.24334167 -25.43161011 278.24050903 C-26.27044172 278.24235262 -27.10927334 278.24419621 -27.97352409 278.24609566 C-30 278 -30 278 -32 276 C-32.24050903 274.08908081 -32.24050903 274.08908081 -32.22705078 271.73388672 C-32.22689972 270.85312469 -32.22674866 269.97236267 -32.22659302 269.06491089 C-32.21110916 267.63672531 -32.21110916 267.63672531 -32.1953125 266.1796875 C-32.19106766 264.71899338 -32.19106766 264.71899338 -32.18673706 263.22879028 C-32.17551913 260.11073651 -32.1504117 256.99296732 -32.125 253.875 C-32.11497228 251.76432706 -32.10584607 249.65364962 -32.09765625 247.54296875 C-32.07557458 242.36188165 -32.04208129 237.18096115 -32 232 C-22.45478596 227.22739298 -10.67187373 231 0 231 C0 154.77 0 78.54 0 0 Z " fill="#010101" transform="translate(267,157)"/>
<path d="M0 0 C17.49 0 34.98 0 53 0 C53.04510037 22.78262611 53.08196203 45.56521623 53.10362434 68.3478756 C53.11394867 78.92561818 53.12803101 89.50333113 53.15087891 100.08105469 C53.17077747 109.29772194 53.18370802 118.51436772 53.18817699 127.73105586 C53.19079038 132.61381539 53.19695682 137.49651349 53.21146011 142.37925339 C53.22498828 146.97070259 53.22923235 151.56206479 53.22621536 156.15353203 C53.22676767 157.8426568 53.2307734 159.53178435 53.23841095 161.22089195 C53.2482978 163.51930789 53.24599206 165.81739128 53.24050903 168.11581421 C53.24235262 169.4044808 53.24419621 170.69314739 53.24609566 172.02086449 C53 175 53 175 51 177 C48.91271973 177.25396729 48.91271973 177.25396729 46.30664062 177.25878906 C44.84502502 177.26824554 44.84502502 177.26824554 43.35388184 177.27789307 C41.77105408 177.27182037 41.77105408 177.27182037 40.15625 177.265625 C39.07621704 177.26753845 37.99618408 177.2694519 36.88342285 177.27142334 C34.59692146 177.27278607 32.31041236 177.26908352 30.02392578 177.26074219 C26.51447245 177.25004412 23.00553107 177.26063473 19.49609375 177.2734375 C17.2786447 177.27211592 15.06119597 177.26955356 12.84375 177.265625 C11.78853149 177.26967346 10.73331299 177.27372192 9.64611816 177.27789307 C8.67170776 177.27158875 7.69729736 177.26528442 6.69335938 177.25878906 C5.83335327 177.25719788 4.97334717 177.25560669 4.08728027 177.25396729 C2 177 2 177 0 175 C-0.24609566 172.02086449 -0.24609566 172.02086449 -0.24050903 168.11581421 C-0.24221788 167.3994837 -0.24392673 166.68315318 -0.24568737 165.94511569 C-0.24899474 163.53280898 -0.23795827 161.12077738 -0.22705078 158.70849609 C-0.22648694 156.98408515 -0.2268027 155.25967373 -0.22793579 153.53526306 C-0.22851135 148.84334062 -0.21672431 144.15151972 -0.20278788 139.45962095 C-0.19031423 134.56021351 -0.18911268 129.66080393 -0.18673706 124.76138306 C-0.18051237 115.4789021 -0.16408821 106.19646805 -0.14403808 96.91400778 C-0.1217098 86.34826815 -0.11069339 75.78252632 -0.10064721 65.21676898 C-0.07972281 43.47781395 -0.04303426 21.73892328 0 0 Z " fill="#010101" transform="translate(415,258)"/>
<path d="M0 0 C0.673935 -0.00155999 1.34787 -0.00311998 2.04222727 -0.00472724 C4.31703233 -0.00873922 6.59177151 -0.00554685 8.86657715 -0.00241089 C10.49069763 -0.00376484 12.11481779 -0.00554474 13.73893738 -0.00772095 C18.16236556 -0.01229599 22.58577053 -0.01050543 27.00919914 -0.00734186 C31.62787821 -0.00481862 36.24655523 -0.0071557 40.86523438 -0.00872803 C48.62300983 -0.01054983 56.38077579 -0.00814314 64.1385498 -0.00338745 C73.12093127 0.00205519 82.10329004 0.00029254 91.08567095 -0.00521386 C98.78330954 -0.00974469 106.48094127 -0.01039568 114.17858076 -0.00777519 C118.78237245 -0.00621225 123.38615345 -0.00601911 127.98994446 -0.00931168 C132.31710185 -0.01218995 136.64422985 -0.0102155 140.97138405 -0.00441742 C142.56417098 -0.00308959 144.15696036 -0.00348433 145.74974632 -0.00568008 C147.91482253 -0.0083907 150.07980303 -0.00501159 152.24487305 0 C153.45941917 0.00037703 154.6739653 0.00075405 155.92531586 0.0011425 C158.62243652 0.12698364 158.62243652 0.12698364 159.62243652 1.12698364 C159.72555689 2.49757957 159.76092605 3.87338023 159.7677002 5.24783325 C159.77408005 6.12221542 159.7804599 6.9965976 159.78703308 7.8974762 C159.78870232 9.32399254 159.78870232 9.32399254 159.79040527 10.77932739 C159.79373367 11.74979507 159.79706207 12.72026276 159.80049133 13.72013855 C159.80556482 15.77721684 159.80789953 17.8343034 159.80773926 19.89138794 C159.80992478 23.04753108 159.82807344 26.20332435 159.8470459 29.35940552 C159.84997986 31.35354494 159.85196464 33.34768603 159.85290527 35.34182739 C159.86009079 36.29081406 159.86727631 37.23980072 159.87467957 38.21754456 C159.87160294 39.09507889 159.86852631 39.97261322 159.86535645 40.8767395 C159.86678146 41.65093735 159.86820648 42.42513519 159.86967468 43.22279358 C159.62243652 45.12698364 159.62243652 45.12698364 157.62243652 47.12698364 C154.8178854 47.37587261 154.8178854 47.37587261 151.1625824 47.3742218 C150.49187653 47.37663622 149.82117066 47.37905063 149.13014036 47.38153821 C146.87218506 47.38719509 144.61451018 47.37849734 142.35656738 47.36990356 C140.74215111 47.37097595 139.12773522 47.37291397 137.51332092 47.37565613 C133.12091249 47.38051427 128.72860525 47.37283705 124.33620906 47.36270308 C119.74823411 47.35393965 115.16026249 47.35567969 110.57228088 47.35606384 C102.86754659 47.35512651 95.16285161 47.34643273 87.45812988 47.33279419 C78.53764129 47.31706237 69.61719577 47.31179624 60.69669431 47.31252974 C52.13021871 47.31313912 43.56375721 47.3080423 34.99728584 47.29973793 C31.34457858 47.29619833 27.6918763 47.29437372 24.0391674 47.29384422 C19.74236017 47.29284303 15.44558939 47.28676488 11.14879417 47.27667809 C9.56729607 47.27374604 7.98579377 47.27252913 6.40429306 47.27310562 C4.25459169 47.27359288 2.104994 47.2679747 -0.04469299 47.26069641 C-1.25056596 47.25902057 -2.45643892 47.25734472 -3.69885349 47.2556181 C-6.37756348 47.12698364 -6.37756348 47.12698364 -7.37756348 46.12698364 C-7.47561198 44.72023144 -7.50554534 43.30863229 -7.50695801 41.89846802 C-7.51011017 41.0008374 -7.51326233 40.10320679 -7.51651001 39.17837524 C-7.51448578 38.20235352 -7.51246155 37.22633179 -7.51037598 36.22073364 C-7.5113327 35.22569824 -7.51228943 34.23066284 -7.51327515 33.20547485 C-7.51395708 31.09711646 -7.51210191 28.98875599 -7.50793457 26.88040161 C-7.50258651 23.64093337 -7.50787915 20.40160379 -7.51428223 17.16213989 C-7.51362145 15.11917083 -7.51234029 13.07620186 -7.51037598 11.03323364 C-7.51240021 10.05721191 -7.51442444 9.08119019 -7.51651001 8.07559204 C-7.51335785 7.17796143 -7.51020569 6.28033081 -7.50695801 5.35549927 C-7.50616241 4.56131592 -7.50536682 3.76713257 -7.50454712 2.94888306 C-7.21040094 -1.27138294 -3.41559598 0.00106029 0 0 Z " fill="#000000" transform="translate(365.3775634765625,157.87301635742188)"/>
</svg>
