<svg version="1.1" id="Layer_1" xmlns="http://www.w3.org/2000/svg" xmlns:xlink="http://www.w3.org/1999/xlink" x="0px" y="0px"
	 width="100%" viewBox="0 0 500 500" enable-background="new 0 0 500 500" xml:space="preserve">
<path fill="transparent
  " opacity="1.000000" stroke="none" 
	d="
M226.000000,501.000000 
	C150.666687,501.000000 75.833366,501.000000 1.000040,501.000000 
	C1.000027,334.333405 1.000027,167.666779 1.000013,1.000130 
	C167.666565,1.000086 334.333130,1.000086 500.999756,1.000043 
	C500.999847,167.666534 500.999847,334.333069 500.999939,500.999817 
	C409.500000,501.000000 318.000000,501.000000 226.000000,501.000000 
M60.388596,181.851624 
	C44.394939,181.819992 28.401228,181.802887 12.407691,181.740799 
	C10.053215,181.731674 8.095301,181.788849 8.146347,185.038803 
	C8.260885,192.330994 8.182227,199.626236 8.182227,207.435287 
	C10.195426,207.435287 11.823936,207.435242 13.452444,207.435287 
	C26.947603,207.435730 40.445236,207.291107 53.936470,207.521469 
	C58.207531,207.594391 62.639927,208.111450 66.684311,209.406448 
	C73.994583,211.747192 77.343620,217.389587 77.006439,225.194016 
	C76.695656,232.387680 73.049026,237.130447 65.605385,239.071426 
	C62.114433,239.981720 58.378738,240.243454 54.748837,240.279251 
	C41.088390,240.414001 27.425837,240.334900 13.764071,240.335861 
	C11.995759,240.335983 10.227448,240.335892 8.180768,240.335892 
	C8.180768,267.491638 8.206920,293.963959 8.144245,320.436066 
	C8.137227,323.400055 9.503121,324.094879 12.143302,324.041229 
	C17.972134,323.922760 23.821413,323.737152 29.630867,324.092987 
	C33.935860,324.356628 35.405560,323.186646 35.321510,318.621826 
	C35.033257,302.966095 35.210880,287.301788 35.210888,271.640747 
	C35.210888,270.052094 35.210888,268.463440 35.210888,266.545166 
	C39.049736,266.545166 42.229355,266.816010 45.342403,266.476501 
	C49.214962,266.054138 51.223324,267.397430 52.833214,271.068848 
	C59.036411,285.215546 66.251640,298.949493 71.839996,313.323151 
	C75.218452,322.012756 79.846199,325.543610 89.073303,324.148315 
	C94.328613,323.353638 99.802551,324.004608 106.360374,324.004608 
	C101.155632,312.672913 96.538010,302.616302 91.917625,292.560944 
	C87.305969,282.524597 82.691544,272.489532 78.051384,262.395264 
	C79.185303,261.827393 79.912529,261.429443 80.666275,261.090576 
	C104.815910,250.232727 112.389053,216.912277 95.184944,196.475021 
	C86.416191,186.058380 74.345543,182.777771 60.388596,181.851624 
M339.462982,319.125641 
	C341.679413,322.911499 344.759705,324.375397 349.325745,324.120758 
	C356.967407,323.694550 364.650238,324.025940 372.315460,323.986145 
	C373.859406,323.978119 375.402161,323.737091 378.514282,323.467682 
	C358.277130,299.607574 338.985016,276.861664 319.658569,254.075287 
	C339.030457,230.171127 358.098267,206.642166 377.166046,183.113190 
	C376.845459,182.661057 376.524872,182.208908 376.204254,181.756775 
	C367.243958,181.756775 358.279633,181.911362 349.325348,181.679382 
	C345.830414,181.588806 343.499146,182.611191 341.300079,185.390976 
	C332.207001,196.885239 322.888367,208.201233 313.638733,219.571426 
	C306.232605,228.675507 298.806427,237.763229 291.389160,246.858231 
	C291.009583,246.755569 290.630035,246.652908 290.250488,246.550247 
	C290.250488,225.069946 290.250488,203.589630 290.250488,181.756851 
	C282.853271,181.756851 276.188416,182.060608 269.566772,181.656479 
	C264.660278,181.357056 263.019562,182.621750 263.050079,187.897385 
	C263.285187,228.556168 263.179504,269.216919 263.179474,309.877075 
	C263.179474,311.272034 263.179474,312.666992 263.179474,315.249634 
	C276.454712,300.326508 288.863708,286.377167 301.469727,272.206329 
	C314.273621,288.023315 326.635620,303.294464 339.462982,319.125641 
M424.093048,285.686035 
	C428.862701,272.108276 433.632355,258.530518 438.792206,243.841904 
	C439.776550,246.428207 440.429443,248.048477 441.013733,249.693161 
	C449.239594,272.847748 457.565002,295.968109 465.568085,319.199524 
	C466.908630,323.090820 468.716919,324.322052 472.689972,324.096130 
	C478.831604,323.746979 485.008026,324.038361 491.168823,323.974426 
	C492.373810,323.961945 493.574799,323.568848 495.144928,323.284851 
	C494.347656,321.163818 493.786835,319.627106 493.194519,318.102631 
	C477.562347,277.868286 461.926727,237.635254 446.292236,197.401810 
	C444.548401,192.914276 442.881653,188.394104 441.000885,183.964767 
	C440.630096,183.091537 439.518921,182.252533 438.591797,182.016754 
	C438.144287,181.902954 437.188110,183.140320 436.719971,183.920532 
	C436.129028,184.905365 435.782349,186.040771 435.362457,187.123672 
	C418.617401,230.308868 401.872772,273.494232 385.143890,316.685699 
	C384.333313,318.778473 383.664917,320.926300 382.599518,324.004150 
	C391.020477,324.004150 398.613251,323.831146 406.191895,324.082855 
	C409.584442,324.195465 411.146240,323.142334 412.233673,319.837799 
	C415.917877,308.641998 419.983856,297.571838 424.093048,285.686035 
M170.396957,316.436768 
	C170.396957,311.016418 170.396957,305.596069 170.396957,299.590393 
	C164.533554,299.590393 159.467911,299.590393 154.087189,299.590393 
	C154.087189,260.050110 154.087189,221.123459 154.087189,181.981125 
	C145.008453,181.981125 136.263885,181.981125 127.047699,181.981125 
	C127.047699,221.142853 127.047699,260.201630 127.047699,299.711151 
	C122.465584,299.711151 118.335739,299.818146 114.214653,299.674286 
	C111.378998,299.575287 110.401459,300.713959 110.485909,303.504303 
	C110.642082,308.664154 110.754288,313.845123 110.456062,318.992462 
	C110.227020,322.945496 111.536911,324.143402 115.535606,324.089813 
	C131.692810,323.873322 147.854599,324.000946 164.014709,323.999573 
	C170.378738,323.999023 170.378738,323.996674 170.396957,316.436768 
M229.926804,269.500000 
	C229.926804,257.552185 229.926804,245.604370 229.926804,233.463074 
	C220.730011,233.463074 212.003586,233.463074 202.919678,233.463074 
	C202.919678,262.850891 202.885574,291.973267 203.067535,321.094330 
	C203.073624,322.070526 205.226013,323.814117 206.439774,323.870575 
	C212.590179,324.156525 218.771835,323.781952 224.920914,324.082001 
	C228.909225,324.276581 230.068542,322.963745 230.015701,318.975464 
	C229.801636,302.819427 229.926804,286.658875 229.926804,269.500000 
M238.499847,181.764130 
	C218.357956,181.764374 198.215637,181.832367 178.074615,181.699249 
	C174.654297,181.676636 173.273224,182.585052 173.464935,186.182449 
	C173.730316,191.162140 173.793671,196.184830 173.449326,201.154846 
	C173.160019,205.330643 174.874908,206.143524 178.664261,206.099304 
	C194.475983,205.914795 210.291092,206.021790 226.104965,206.021790 
	C235.759750,206.021790 245.416519,206.115677 255.067032,205.912720 
	C256.402405,205.884613 258.812683,204.436996 258.851013,203.564209 
	C259.162018,196.484299 259.025696,189.384735 259.025696,182.454742 
	C257.905884,182.107376 257.442108,181.841278 256.976257,181.837570 
	C251.150879,181.790985 245.325211,181.782440 238.499847,181.764130 
z"/>
<path fill="#030303" opacity="1.000000" stroke="none" 
	d="
M60.869556,181.875519 
	C74.345543,182.777771 86.416191,186.058380 95.184944,196.475021 
	C112.389053,216.912277 104.815910,250.232727 80.666275,261.090576 
	C79.912529,261.429443 79.185303,261.827393 78.051384,262.395264 
	C82.691544,272.489532 87.305969,282.524597 91.917625,292.560944 
	C96.538010,302.616302 101.155632,312.672913 106.360374,324.004608 
	C99.802551,324.004608 94.328613,323.353638 89.073303,324.148315 
	C79.846199,325.543610 75.218452,322.012756 71.839996,313.323151 
	C66.251640,298.949493 59.036411,285.215546 52.833214,271.068848 
	C51.223324,267.397430 49.214962,266.054138 45.342403,266.476501 
	C42.229355,266.816010 39.049736,266.545166 35.210888,266.545166 
	C35.210888,268.463440 35.210888,270.052094 35.210888,271.640747 
	C35.210880,287.301788 35.033257,302.966095 35.321510,318.621826 
	C35.405560,323.186646 33.935860,324.356628 29.630867,324.092987 
	C23.821413,323.737152 17.972134,323.922760 12.143302,324.041229 
	C9.503121,324.094879 8.137227,323.400055 8.144245,320.436066 
	C8.206920,293.963959 8.180768,267.491638 8.180768,240.335892 
	C10.227448,240.335892 11.995759,240.335983 13.764071,240.335861 
	C27.425837,240.334900 41.088390,240.414001 54.748837,240.279251 
	C58.378738,240.243454 62.114433,239.981720 65.605385,239.071426 
	C73.049026,237.130447 76.695656,232.387680 77.006439,225.194016 
	C77.343620,217.389587 73.994583,211.747192 66.684311,209.406448 
	C62.639927,208.111450 58.207531,207.594391 53.936470,207.521469 
	C40.445236,207.291107 26.947603,207.435730 13.452444,207.435287 
	C11.823936,207.435242 10.195426,207.435287 8.182227,207.435287 
	C8.182227,199.626236 8.260885,192.330994 8.146347,185.038803 
	C8.095301,181.788849 10.053215,181.731674 12.407691,181.740799 
	C28.401228,181.802887 44.394939,181.819992 60.869556,181.875519 
z"/>
<path fill="#030303" opacity="1.000000" stroke="none" 
	d="
M339.230316,318.845642 
	C326.635620,303.294464 314.273621,288.023315 301.469727,272.206329 
	C288.863708,286.377167 276.454712,300.326508 263.179474,315.249634 
	C263.179474,312.666992 263.179474,311.272034 263.179474,309.877075 
	C263.179504,269.216919 263.285187,228.556168 263.050079,187.897385 
	C263.019562,182.621750 264.660278,181.357056 269.566772,181.656479 
	C276.188416,182.060608 282.853271,181.756851 290.250488,181.756851 
	C290.250488,203.589630 290.250488,225.069946 290.250488,246.550247 
	C290.630035,246.652908 291.009583,246.755569 291.389160,246.858231 
	C298.806427,237.763229 306.232605,228.675507 313.638733,219.571426 
	C322.888367,208.201233 332.207001,196.885239 341.300079,185.390976 
	C343.499146,182.611191 345.830414,181.588806 349.325348,181.679382 
	C358.279633,181.911362 367.243958,181.756775 376.204254,181.756775 
	C376.524872,182.208908 376.845459,182.661057 377.166046,183.113190 
	C358.098267,206.642166 339.030457,230.171127 319.658569,254.075287 
	C338.985016,276.861664 358.277130,299.607574 378.514282,323.467682 
	C375.402161,323.737091 373.859406,323.978119 372.315460,323.986145 
	C364.650238,324.025940 356.967407,323.694550 349.325745,324.120758 
	C344.759705,324.375397 341.679413,322.911499 339.230316,318.845642 
z"/>
<path fill="#030303" opacity="1.000000" stroke="none" 
	d="
M423.998505,286.069855 
	C419.983856,297.571838 415.917877,308.641998 412.233673,319.837799 
	C411.146240,323.142334 409.584442,324.195465 406.191895,324.082855 
	C398.613251,323.831146 391.020477,324.004150 382.599518,324.004150 
	C383.664917,320.926300 384.333313,318.778473 385.143890,316.685699 
	C401.872772,273.494232 418.617401,230.308868 435.362457,187.123672 
	C435.782349,186.040771 436.129028,184.905365 436.719971,183.920532 
	C437.188110,183.140320 438.144287,181.902954 438.591797,182.016754 
	C439.518921,182.252533 440.630096,183.091537 441.000885,183.964767 
	C442.881653,188.394104 444.548401,192.914276 446.292236,197.401810 
	C461.926727,237.635254 477.562347,277.868286 493.194519,318.102631 
	C493.786835,319.627106 494.347656,321.163818 495.144928,323.284851 
	C493.574799,323.568848 492.373810,323.961945 491.168823,323.974426 
	C485.008026,324.038361 478.831604,323.746979 472.689972,324.096130 
	C468.716919,324.322052 466.908630,323.090820 465.568085,319.199524 
	C457.565002,295.968109 449.239594,272.847748 441.013733,249.693161 
	C440.429443,248.048477 439.776550,246.428207 438.792206,243.841904 
	C433.632355,258.530518 428.862701,272.108276 423.998505,286.069855 
z"/>
<path fill="#000000" opacity="1.000000" stroke="none" 
	d="
M170.396973,316.927917 
	C170.378738,323.996674 170.378738,323.999023 164.014709,323.999573 
	C147.854599,324.000946 131.692810,323.873322 115.535606,324.089813 
	C111.536911,324.143402 110.227020,322.945496 110.456062,318.992462 
	C110.754288,313.845123 110.642082,308.664154 110.485909,303.504303 
	C110.401459,300.713959 111.378998,299.575287 114.214653,299.674286 
	C118.335739,299.818146 122.465584,299.711151 127.047699,299.711151 
	C127.047699,260.201630 127.047699,221.142853 127.047699,181.981125 
	C136.263885,181.981125 145.008453,181.981125 154.087189,181.981125 
	C154.087189,221.123459 154.087189,260.050110 154.087189,299.590393 
	C159.467911,299.590393 164.533554,299.590393 170.396957,299.590393 
	C170.396957,305.596069 170.396957,311.016418 170.396973,316.927917 
z"/>
<path fill="#020202" opacity="1.000000" stroke="none" 
	d="
M229.926804,270.000000 
	C229.926804,286.658875 229.801636,302.819427 230.015701,318.975464 
	C230.068542,322.963745 228.909225,324.276581 224.920914,324.082001 
	C218.771835,323.781952 212.590179,324.156525 206.439774,323.870575 
	C205.226013,323.814117 203.073624,322.070526 203.067535,321.094330 
	C202.885574,291.973267 202.919678,262.850891 202.919678,233.463074 
	C212.003586,233.463074 220.730011,233.463074 229.926804,233.463074 
	C229.926804,245.604370 229.926804,257.552185 229.926804,270.000000 
z"/>
<path fill="#000000" opacity="1.000000" stroke="none" 
	d="
M238.999725,181.764130 
	C245.325211,181.782440 251.150879,181.790985 256.976257,181.837570 
	C257.442108,181.841278 257.905884,182.107376 259.025696,182.454742 
	C259.025696,189.384735 259.162018,196.484299 258.851013,203.564209 
	C258.812683,204.436996 256.402405,205.884613 255.067032,205.912720 
	C245.416519,206.115677 235.759750,206.021790 226.104965,206.021790 
	C210.291092,206.021790 194.475983,205.914795 178.664261,206.099304 
	C174.874908,206.143524 173.160019,205.330643 173.449326,201.154846 
	C173.793671,196.184830 173.730316,191.162140 173.464935,186.182449 
	C173.273224,182.585052 174.654297,181.676636 178.074615,181.699249 
	C198.215637,181.832367 218.357956,181.764374 238.999725,181.764130 
z"/>
</svg>